<svg xmlns="http://www.w3.org/2000/svg" viewBox="0 0 164.85 159.05"><title>Asset 5</title><g id="e7771144-b6e5-43d3-8d58-6f5711d48f3d" data-name="Layer 2"><g id="573f32fb-8373-4996-953c-6d6dbbc0bbc6" data-name="Layer 1"><path d="M149.18,119.8a79.64,79.64,0,0,0,8.33-18.46,2.43,2.43,0,0,1,1.31-1.31c2.64-1,3.06-2.92,1.06-5-.25-.27-.6-.66-.56-1,.39-2.88.85-5.75,1.29-8.6,4.28-.33,5.07-1.28,3.47-4.37-.33-.63-1.36-1-2.15-1.27a1.75,1.75,0,0,1-1.44-2c.08-2.85,0-5.71,0-8.67.24-.12.66-.29,1.05-.52,1.83-1.11,2-2.89.32-4.23-.44-.36-1-.53-1.45-.91a4.81,4.81,0,0,1-1.32-1.69c-2.11-6.06-4-12.2-6.29-18.19-1-2.71-2.88-5.12-4.36-7.66,2.44-2.3,2.37-4.88-.23-5.81a12.59,12.59,0,0,0-3.07-.18,2.21,2.21,0,0,1-1.35-.38c-2.19-2.43-4.32-4.92-6.07-6.93.35-1.52,1.17-3,.74-3.73-.59-1-2.08-1.62-3.31-2.05a9.35,9.35,0,0,0-2.92,0c-.43,0-1,.09-1.28-.12-2.77-1.93-5.5-3.92-8.25-5.9,1-2.54-.29-4.39-3.06-4.42-1.2,0-2.39.24-3.59.27a5.29,5.29,0,0,1-2.15-.28A79.58,79.58,0,0,0,75,.33C70.36.74,65.9,2.43,61.1,2c-1.78-.17-4.3-.18-5.15,2.44,0,.13-.25.22-.4.28L46.48,8.59C45.86,7.22,45,6.17,43.35,6.41S40.8,7.89,40.22,9.3a15.64,15.64,0,0,0-.5,2.53c-.09.42-.16,1-.45,1.19-3.12,2.42-6.29,4.78-9.44,7.16-1.76-2.58-3.42-2.68-5.07,0a15.3,15.3,0,0,0-1.29,4.54c-.2.87.09,2-.36,2.65-2.22,3.12-4.62,6.12-7,9.16-1.81-2-3.47-1.7-4.74.75A3.16,3.16,0,0,0,11,38.43c-.19,2.28-.31,4.57-.5,6.85a18.84,18.84,0,0,1-.5,3.66C8.82,53,7.32,57,6.34,61.07c-.86,3.62-1.22,7.36-1.72,11.05a2.54,2.54,0,0,1-1.3,2,11.13,11.13,0,0,0-3,2.79,2.86,2.86,0,0,0-.1,2.53c.32.56,1.42.78,2.22.94a6,6,0,0,0,1.8-.18l.64,8.7a8.55,8.55,0,0,0-1.87,1c-.63.56-1.64,1.63-1.48,2a5.6,5.6,0,0,0,2.25,2.07c.53.29,1.35.05,2.28.05.62,2.76,1.06,5.44,1.86,8a9.78,9.78,0,0,1,0,5.18,9.27,9.27,0,0,0,0,4c.58,2.32,2,2.72,4.19,1.27,1.08,1.87,2.16,3.72,3.21,5.59a31.45,31.45,0,0,0,1.59,3.06,9.61,9.61,0,0,1,1.75,6.49c-.21,3.82,2.29,5.23,5.38,3.55,3.36,3.07,6.62,6.15,10,9.08a3.48,3.48,0,0,1,1.55,3c0,2.26,1.8,3.9,3.71,3,2.11-1,3.34.07,4.84.88,1.21.66,2.4,1.35,3.64,2a79.8,79.8,0,0,0,26.13,7.72c4.69.57,9.51-.1,14.11,1.83,1.48.62,4.15,1.11,4.84-1.89,0-.17.6-.25.93-.31a13.87,13.87,0,0,1,1.7-.26c4.48-.32,8.65-2.85,13.43-1.49,2.84.81,3.69-.31,3.41-2.89,4.46-2.52,8.79-5,13.16-7.4a2.78,2.78,0,0,1,2-.19,3.58,3.58,0,0,0,4.29-1.28c.54-.69.33-2,.46-3l.09.43,8.52-9A67.62,67.62,0,0,1,149.18,119.8Zm-5.51.13c-10-7.59-20.24-14.73-29.2-24.27,13.25.7,26,1.34,38.76,3.9A74.44,74.44,0,0,1,143.67,119.94ZM156,86.12c-.37,2.25-.71,4.5-1.08,6.91-3.7-.41-7.17-.82-10.65-1.18-3.25-.34-6.51-.73-9.77-.91-8.1-.43-16.21-.7-24.31-1.2-.92-.06-1.94-1-2.64-1.82-2-2.27-4-4.66-6.17-7.3.91,0,1.39-.1,1.88-.09,7.95.12,15.91,0,23.83.46,6.79.42,13.54,1.55,20.3,2.43,2.5.33,5,.89,7.45,1.25C155.76,84.81,156.13,85.16,156,86.12Zm.48-8.06L151,77.39c-2.72-.34-5.44-.75-8.17-1-7.32-.62-14.64-1.35-22-1.69s-14.74-.36-22.11-.35a4.22,4.22,0,0,1-3.89-1.91c-.68-1-1.41-1.92-2-2.73,1.39-1.48,2.69-2.93,4.08-4.29A2.16,2.16,0,0,1,98.36,65c9.1.2,18.2.27,27.29.69,6.75.31,13.48,1,20.2,1.68,3.24.31,6.45.88,9.85,1.35ZM144.53,38.42a75.51,75.51,0,0,1,9.74,23.18,2.17,2.17,0,0,1-.09.55c-16.5-2-33-2.5-49.66-3.15,1-.83,2.07-1.69,3.15-2.49a144,144,0,0,1,35-18.57C143.49,37.64,144,37.54,144.53,38.42ZM131.38,24.72a2.38,2.38,0,0,1,2,.24c2.16,2.12,4.2,4.37,6.57,6.9-19.32,7.78-37.09,17.1-51.66,32l-7.34-9.68c2.75-2.17,5.25-4.36,8-6.22,6.16-4.19,12.36-8.33,18.69-12.28A100.08,100.08,0,0,1,131.38,24.72ZM116.47,13.47a1.79,1.79,0,0,1,1.17,0c2.8,1.64,5.57,3.33,8.67,5.19C108.22,26.36,92.5,36.93,77.46,49L71.18,37.48c1.58-1.19,3-2.45,4.66-3.49,6.55-4.21,13-8.65,19.77-12.44A79.32,79.32,0,0,1,116.47,13.47ZM107.38,9C93.16,13.87,80.65,21.69,68.48,30.61A84.39,84.39,0,0,1,62.76,7.29C77.92,2.84,92.7,3.8,107.38,9ZM8.9,72,11.53,57.6l.69,0L15.82,70ZM9.3,87.63c-.14-3-.32-5.55-.34-8.12a1.89,1.89,0,0,1,1-1.39c2.18-.82,4.44-1.44,6.64-2.24,1-.35,1.51-.27,1.8.78A4.32,4.32,0,0,0,19,78.08c1.67,2.28,1.11,4.37-.58,6.29a4.62,4.62,0,0,1-2,1.36C14.19,86.43,11.87,87,9.3,87.63Zm2.11,10.19-1-4.68,3.76-.91ZM20.81,119c-1-1.69-2-3.32-2.94-5-3.48-6.21-3.47-6.21.09-12.3,1.86-3.18,3.71-6.37,5.57-9.54.32-.54.69-1,1.19-1.8a69.14,69.14,0,0,0,4,7.21c2,2.82,1.81,5-.16,7.92C25.72,109.71,23.46,114.34,20.81,119ZM42,125.62c-2.12,3.31-3.53,7.07-5.4,11-2.5-2.37-4.89-4.86-7.51-7.06s-3.07-4.35-1.19-7.43c2.59-4.24,4.68-8.78,7.11-13.42,2.27,3.34,4.1,6.58,6.46,9.35C43.66,120.62,43.85,122.67,42,125.62Zm1.59,15.71,5.37-13.63A172.61,172.61,0,0,0,75.08,152C63.64,151.23,53.35,147.34,43.55,141.33ZM89,152.56a1.28,1.28,0,0,1-.79-.28c-5.55-4.11-11.33-8-16.57-12.43-8.17-7-15-15.24-21.42-23.84C44.43,108.16,38.72,100.17,33.38,92a103,103,0,0,1-14.3-34.44C18.3,54,17.72,50.34,17.3,46.72a6.93,6.93,0,0,1,.81-3.9c1.58-2.85,3.43-5.55,5.19-8.3a3.52,3.52,0,0,1,.69-.67c11.6,47.71,38.12,85.67,75.75,116.72C96.27,152.19,92.63,152.24,89,152.56Zm20.43-5.11a1.68,1.68,0,0,1-1.33-.32,171.82,171.82,0,0,1-25.29-22.44c-11.25-12-20.56-25.34-29.12-39.29a178.89,178.89,0,0,1-20.11-46c-1.11-4-1.89-8.11-2.78-12.18-.1-.46-.12-1.19.15-1.44,2.76-2.55,5.6-5,8.67-7.76.52,2.94.94,5.33,1.37,7.71a104.62,104.62,0,0,0,7.29,22.66,212.94,212.94,0,0,0,23.43,42,244.15,244.15,0,0,0,34.34,38c4.67,4.18,9.73,7.93,14.61,11.87.31.25.6.51,1.41,1.2C117.66,143.58,113.58,145.55,109.48,147.45Zm18.85-10.53c-4.76-3.84-9.39-7.44-13.85-11.21a216.57,216.57,0,0,1-22.62-22.32c-13.29-15.09-25-31.25-33.64-49.52A122.43,122.43,0,0,1,47.66,19.61c-.24-1.59-.49-3.18-.64-4.78,0-.44.13-1.18.43-1.33,2.59-1.33,5.23-2.55,8-3.88,1.43,11.46,5.49,21.72,10.46,31.64A175.08,175.08,0,0,0,88.65,75.55q12.62,15,26,29.33c7.12,7.61,14.68,14.82,23.44,20.62.24.16.44.37,1,.86Z" style="fill:#f41349"/></g></g></svg>